<?xml version="1.0" encoding="UTF-8"?>
<svg version="1.1" xmlns="http://www.w3.org/2000/svg" width="1600" height="1600">
<path d="M0 0 C31.68 0 63.36 0 96 0 C96 10.56 96 21.12 96 32 C106.56 32 117.12 32 128 32 C128 42.89 128 53.78 128 65 C138.56 65 149.12 65 160 65 C160 75.56 160 86.12 160 97 C170.89 97 181.78 97 193 97 C193 118.12 193 139.24 193 161 C203.56 161 214.12 161 225 161 C225 193.01 225 225.02 225 258 C235.56 258 246.12 258 257 258 C257 300.24 257 342.48 257 386 C267.56 386 278.12 386 289 386 C289 407.45 289 428.9 289 451 C321.01 451 353.02 451 386 451 C386 429.55 386 408.1 386 386 C396.56 386 407.12 386 418 386 C418 343.76 418 301.52 418 258 C428.56 258 439.12 258 450 258 C450 236.55 450 215.1 450 193 C460.56 193 471.12 193 482 193 C482 171.88 482 150.76 482 129 C492.56 129 503.12 129 514 129 C514 118.44 514 107.88 514 97 C524.56 97 535.12 97 546 97 C546 86.44 546 75.88 546 65 C556.89 65 567.78 65 579 65 C579 54.11 579 43.22 579 32 C600.12 32 621.24 32 643 32 C643 21.44 643 10.88 643 0 C674.68 0 706.36 0 739 0 C739 10.56 739 21.12 739 32 C749.56 32 760.12 32 771 32 C771 42.89 771 53.78 771 65 C781.89 65 792.78 65 804 65 C804 86.12 804 107.24 804 129 C793.11 129 782.22 129 771 129 C771 139.56 771 150.12 771 161 C760.44 161 749.88 161 739 161 C739 171.56 739 182.12 739 193 C717.88 193 696.76 193 675 193 C675 203.56 675 214.12 675 225 C664.44 225 653.88 225 643 225 C643 267.57 643 310.14 643 354 C632.44 354 621.88 354 611 354 C611 386.01 611 418.02 611 451 C600.44 451 589.88 451 579 451 C579 493.24 579 535.48 579 579 C589.56 579 600.12 579 611 579 C611 621.57 611 664.14 611 708 C621.56 708 632.12 708 643 708 C643 739.68 643 771.36 643 804 C653.56 804 664.12 804 675 804 C675 836.01 675 868.02 675 901 C685.56 901 696.12 901 707 901 C707 922.12 707 943.24 707 965 C717.56 965 728.12 965 739 965 C739 975.56 739 986.12 739 997 C749.56 997 760.12 997 771 997 C771 1007.56 771 1018.12 771 1029 C760.44 1029 749.88 1029 739 1029 C739 1039.89 739 1050.78 739 1062 C728.44 1062 717.88 1062 707 1062 C707 1072.56 707 1083.12 707 1094 C696.44 1094 685.88 1094 675 1094 C675 1104.56 675 1115.12 675 1126 C664.44 1126 653.88 1126 643 1126 C643 1115.44 643 1104.88 643 1094 C621.88 1094 600.76 1094 579 1094 C579 1083.44 579 1072.88 579 1062 C568.11 1062 557.22 1062 546 1062 C546 1051.11 546 1040.22 546 1029 C535.44 1029 524.88 1029 514 1029 C514 1018.44 514 1007.88 514 997 C503.44 997 492.88 997 482 997 C482 975.88 482 954.76 482 933 C471.44 933 460.88 933 450 933 C450 911.88 450 890.76 450 869 C439.44 869 428.88 869 418 869 C418 826.43 418 783.86 418 740 C407.44 740 396.88 740 386 740 C386 707.99 386 675.98 386 643 C353.99 643 321.98 643 289 643 C289 675.01 289 707.02 289 740 C278.44 740 267.88 740 257 740 C257 782.57 257 825.14 257 869 C246.44 869 235.88 869 225 869 C225 900.68 225 932.36 225 965 C214.44 965 203.88 965 193 965 C193 986.12 193 1007.24 193 1029 C182.11 1029 171.22 1029 160 1029 C160 1039.89 160 1050.78 160 1062 C149.44 1062 138.88 1062 128 1062 C128 1072.56 128 1083.12 128 1094 C117.44 1094 106.88 1094 96 1094 C96 1104.56 96 1115.12 96 1126 C85.44 1126 74.88 1126 64 1126 C64 1115.44 64 1104.88 64 1094 C53.44 1094 42.88 1094 32 1094 C32 1083.44 32 1072.88 32 1062 C21.44 1062 10.88 1062 0 1062 C0 1051.11 0 1040.22 0 1029 C-10.89 1029 -21.78 1029 -33 1029 C-33 997.32 -33 965.64 -33 933 C-22.11 933 -11.22 933 0 933 C0 922.44 0 911.88 0 901 C10.56 901 21.12 901 32 901 C32 879.55 32 858.1 32 836 C42.56 836 53.12 836 64 836 C64 804.32 64 772.64 64 740 C74.56 740 85.12 740 96 740 C96 623.18 96 506.36 96 386 C85.44 386 74.88 386 64 386 C64 354.32 64 322.64 64 290 C53.44 290 42.88 290 32 290 C32 257.99 32 225.98 32 193 C21.44 193 10.88 193 0 193 C0 171.88 0 150.76 0 129 C-10.89 129 -21.78 129 -33 129 C-33 96.99 -33 64.98 -33 32 C-22.11 32 -11.22 32 0 32 C0 21.44 0 10.88 0 0 Z " fill="#FF7E00" transform="translate(129,257)"/>
<path d="M0 0 C74.25 0 148.5 0 225 0 C225 10.56 225 21.12 225 32 C235.56 32 246.12 32 257 32 C257 42.89 257 53.78 257 65 C267.56 65 278.12 65 289 65 C289 75.56 289 86.12 289 97 C299.56 97 310.12 97 321 97 C321 107.56 321 118.12 321 129 C331.56 129 342.12 129 353 129 C353 139.56 353 150.12 353 161 C363.89 161 374.78 161 386 161 C386 171.56 386 182.12 386 193 C396.56 193 407.12 193 418 193 C418 214.45 418 235.9 418 258 C428.56 258 439.12 258 450 258 C450 332.25 450 406.5 450 483 C439.44 483 428.88 483 418 483 C418 504.12 418 525.24 418 547 C407.44 547 396.88 547 386 547 C386 557.56 386 568.12 386 579 C375.11 579 364.22 579 353 579 C353 589.56 353 600.12 353 611 C342.44 611 331.88 611 321 611 C321 621.56 321 632.12 321 643 C310.44 643 299.88 643 289 643 C289 653.89 289 664.78 289 676 C278.44 676 267.88 676 257 676 C257 686.56 257 697.12 257 708 C235.88 708 214.76 708 193 708 C193 718.56 193 729.12 193 740 C171.55 740 150.1 740 128 740 C128 793.13 128 846.26 128 901 C138.56 901 149.12 901 160 901 C160 922.12 160 943.24 160 965 C170.89 965 181.78 965 193 965 C193 975.56 193 986.12 193 997 C203.56 997 214.12 997 225 997 C225 1007.56 225 1018.12 225 1029 C235.56 1029 246.12 1029 257 1029 C257 1039.89 257 1050.78 257 1062 C246.44 1062 235.88 1062 225 1062 C225 1072.56 225 1083.12 225 1094 C87.06 1094 -50.88 1094 -193 1094 C-193 1083.44 -193 1072.88 -193 1062 C-203.89 1062 -214.78 1062 -226 1062 C-226 1051.11 -226 1040.22 -226 1029 C-215.11 1029 -204.22 1029 -193 1029 C-193 1018.44 -193 1007.88 -193 997 C-182.44 997 -171.88 997 -161 997 C-161 986.44 -161 975.88 -161 965 C-150.44 965 -139.88 965 -129 965 C-129 943.88 -129 922.76 -129 901 C-118.44 901 -107.88 901 -97 901 C-97 879.55 -97 858.1 -97 836 C-86.44 836 -75.88 836 -65 836 C-65 783.2 -65 730.4 -65 676 C-75.56 676 -86.12 676 -97 676 C-97 643.99 -97 611.98 -97 579 C-107.56 579 -118.12 579 -129 579 C-129 536.76 -129 494.52 -129 451 C-139.56 451 -150.12 451 -161 451 C-161 418.99 -161 386.98 -161 354 C-171.56 354 -182.12 354 -193 354 C-193 332.88 -193 311.76 -193 290 C-203.89 290 -214.78 290 -226 290 C-226 268.55 -226 247.1 -226 225 C-215.11 225 -204.22 225 -193 225 C-193 214.44 -193 203.88 -193 193 C-182.44 193 -171.88 193 -161 193 C-161 171.88 -161 150.76 -161 129 C-150.44 129 -139.88 129 -129 129 C-129 118.44 -129 107.88 -129 97 C-118.44 97 -107.88 97 -97 97 C-97 86.44 -97 75.88 -97 65 C-75.88 65 -54.76 65 -33 65 C-33 54.11 -33 43.22 -33 32 C-22.11 32 -11.22 32 0 32 C0 21.44 0 10.88 0 0 Z M64 193 C64 214.45 64 235.9 64 258 C53.44 258 42.88 258 32 258 C32 310.8 32 363.6 32 418 C42.56 418 53.12 418 64 418 C64 450.01 64 482.02 64 515 C74.56 515 85.12 515 96 515 C96 525.56 96 536.12 96 547 C128.01 547 160.02 547 193 547 C193 536.44 193 525.88 193 515 C203.56 515 214.12 515 225 515 C225 504.44 225 493.88 225 483 C235.56 483 246.12 483 257 483 C257 429.87 257 376.74 257 322 C246.44 322 235.88 322 225 322 C225 300.88 225 279.76 225 258 C214.44 258 203.88 258 193 258 C193 236.55 193 215.1 193 193 C150.43 193 107.86 193 64 193 Z " fill="#FF7E00" transform="translate(1126,257)"/>
<path d="M0 0 C10.56 0 21.12 0 32 0 C32 10.56 32 21.12 32 32 C42.89 32 53.78 32 65 32 C65 42.56 65 53.12 65 64 C75.56 64 86.12 64 97 64 C97 85.45 97 106.9 97 129 C107.56 129 118.12 129 129 129 C129 203.25 129 277.5 129 354 C118.44 354 107.88 354 97 354 C97 375.12 97 396.24 97 418 C86.44 418 75.88 418 65 418 C65 428.56 65 439.12 65 450 C43.55 450 22.1 450 0 450 C0 428.88 0 407.76 0 386 C10.56 386 21.12 386 32 386 C32 343.43 32 300.86 32 257 C42.89 257 53.78 257 65 257 C65 214.76 65 172.52 65 129 C54.11 129 43.22 129 32 129 C32 107.55 32 86.1 32 64 C21.44 64 10.88 64 0 64 C0 42.88 0 21.76 0 0 Z " fill="#FF7E00" transform="translate(1447,386)"/>
<path d="M0 0 C137.94 0 275.88 0 418 0 C418 10.56 418 21.12 418 32 C280.06 32 142.12 32 0 32 C0 21.44 0 10.88 0 0 Z " fill="#000000" transform="translate(933,1319)"/>
<path d="M0 0 C53.13 0 106.26 0 161 0 C161 42.57 161 85.14 161 129 C150.44 129 139.88 129 129 129 C129 96.99 129 64.98 129 32 C96.99 32 64.98 32 32 32 C32 64.01 32 96.02 32 129 C21.44 129 10.88 129 0 129 C0 86.43 0 43.86 0 0 Z " fill="#000000" transform="translate(386,868)"/>
<path d="M0 0 C10.56 0 21.12 0 32 0 C32 116.82 32 233.64 32 354 C21.44 354 10.88 354 0 354 C0 237.18 0 120.36 0 0 Z " fill="#000000" transform="translate(225,643)"/>
<path d="M0 0 C10.56 0 21.12 0 32 0 C32 21.45 32 42.9 32 65 C64.01 65 96.02 65 129 65 C129 43.55 129 22.1 129 0 C139.56 0 150.12 0 161 0 C161 32.01 161 64.02 161 97 C107.87 97 54.74 97 0 97 C0 64.99 0 32.98 0 0 Z " fill="#000000" transform="translate(386,643)"/>
<path d="M0 0 C31.68 0 63.36 0 96 0 C96 10.56 96 21.12 96 32 C74.88 32 53.76 32 32 32 C32 42.89 32 53.78 32 65 C21.44 65 10.88 65 0 65 C0 86.12 0 107.24 0 129 C-10.89 129 -21.78 129 -33 129 C-33 96.99 -33 64.98 -33 32 C-22.11 32 -11.22 32 0 32 C0 21.44 0 10.88 0 0 Z " fill="#000000" transform="translate(129,257)"/>
<path d="M0 0 C10.56 0 21.12 0 32 0 C32 21.45 32 42.9 32 65 C42.89 65 53.78 65 65 65 C65 107.24 65 149.48 65 193 C54.11 193 43.22 193 32 193 C32 161.32 32 129.64 32 97 C21.44 97 10.88 97 0 97 C0 64.99 0 32.98 0 0 Z " fill="#FFB169" transform="translate(1447,450)"/>
<path d="M0 0 C10.89 0 21.78 0 33 0 C33 21.12 33 42.24 33 64 C43.56 64 54.12 64 65 64 C65 96.01 65 128.02 65 161 C54.44 161 43.88 161 33 161 C33 150.11 33 139.22 33 128 C22.11 128 11.22 128 0 128 C0 85.76 0 43.52 0 0 Z " fill="#FF7E00" transform="translate(289,354)"/>
<path d="M0 0 C10.56 0 21.12 0 32 0 C32 74.25 32 148.5 32 225 C21.44 225 10.88 225 0 225 C0 150.75 0 76.5 0 0 Z " fill="#000000" transform="translate(1544,515)"/>
<path d="M0 0 C74.25 0 148.5 0 225 0 C225 10.56 225 21.12 225 32 C150.75 32 76.5 32 0 32 C0 21.44 0 10.88 0 0 Z " fill="#000000" transform="translate(1126,257)"/>
<path d="M0 0 C10.56 0 21.12 0 32 0 C32 63.69 32 127.38 32 193 C21.44 193 10.88 193 0 193 C0 129.31 0 65.62 0 0 Z " fill="#FFB169" transform="translate(611,900)"/>
<path d="M0 0 C21.12 0 42.24 0 64 0 C64 42.24 64 84.48 64 128 C53.44 128 42.88 128 32 128 C32 106.88 32 85.76 32 64 C21.44 64 10.88 64 0 64 C0 42.88 0 21.76 0 0 Z " fill="#FF7E00" transform="translate(225,354)"/>
<path d="M0 0 C10.56 0 21.12 0 32 0 C32 53.13 32 106.26 32 161 C21.44 161 10.88 161 0 161 C0 107.87 0 54.74 0 0 Z " fill="#000000" transform="translate(1222,997)"/>
<path d="M0 0 C10.56 0 21.12 0 32 0 C32 53.13 32 106.26 32 161 C21.44 161 10.88 161 0 161 C0 107.87 0 54.74 0 0 Z " fill="#000000" transform="translate(1383,579)"/>
<path d="M0 0 C10.56 0 21.12 0 32 0 C32 52.8 32 105.6 32 160 C21.44 160 10.88 160 0 160 C0 107.2 0 54.4 0 0 Z " fill="#000000" transform="translate(1061,933)"/>
<path d="M0 0 C10.56 0 21.12 0 32 0 C32 52.8 32 105.6 32 160 C21.44 160 10.88 160 0 160 C0 107.2 0 54.4 0 0 Z " fill="#000000" transform="translate(1126,515)"/>
<path d="M0 0 C10.89 0 21.78 0 33 0 C33 42.24 33 84.48 33 128 C22.11 128 11.22 128 0 128 C0 85.76 0 43.52 0 0 Z " fill="#000000" transform="translate(675,708)"/>
<path d="M0 0 C10.56 0 21.12 0 32 0 C32 42.57 32 85.14 32 129 C21.44 129 10.88 129 0 129 C0 86.43 0 43.86 0 0 Z " fill="#000000" transform="translate(547,997)"/>
<path d="M0 0 C10.56 0 21.12 0 32 0 C32 42.57 32 85.14 32 129 C21.44 129 10.88 129 0 129 C0 86.43 0 43.86 0 0 Z " fill="#000000" transform="translate(354,997)"/>
<path d="M0 0 C10.56 0 21.12 0 32 0 C32 42.57 32 85.14 32 129 C21.44 129 10.88 129 0 129 C0 86.43 0 43.86 0 0 Z " fill="#000000" transform="translate(708,836)"/>
<path d="M0 0 C10.56 0 21.12 0 32 0 C32 42.57 32 85.14 32 129 C21.44 129 10.88 129 0 129 C0 86.43 0 43.86 0 0 Z " fill="#FFB169" transform="translate(1447,643)"/>
<path d="M0 0 C10.56 0 21.12 0 32 0 C32 42.57 32 85.14 32 129 C21.44 129 10.88 129 0 129 C0 86.43 0 43.86 0 0 Z " fill="#000000" transform="translate(740,482)"/>
<path d="M0 0 C42.57 0 85.14 0 129 0 C129 10.56 129 21.12 129 32 C86.43 32 43.86 32 0 32 C0 21.44 0 10.88 0 0 Z " fill="#000000" transform="translate(1190,418)"/>
<path d="M0 0 C10.56 0 21.12 0 32 0 C32 42.24 32 84.48 32 128 C21.44 128 10.88 128 0 128 C0 85.76 0 43.52 0 0 Z " fill="#000000" transform="translate(997,708)"/>
<path d="M0 0 C10.56 0 21.12 0 32 0 C32 42.24 32 84.48 32 128 C21.44 128 10.88 128 0 128 C0 85.76 0 43.52 0 0 Z " fill="#000000" transform="translate(547,515)"/>
<path d="M0 0 C10.56 0 21.12 0 32 0 C32 42.24 32 84.48 32 128 C21.44 128 10.88 128 0 128 C0 85.76 0 43.52 0 0 Z " fill="#000000" transform="translate(354,515)"/>
<path d="M0 0 C10.89 0 21.78 0 33 0 C33 31.68 33 63.36 33 96 C22.11 96 11.22 96 0 96 C0 64.32 0 32.64 0 0 Z " fill="#000000" transform="translate(96,1190)"/>
<path d="M0 0 C10.56 0 21.12 0 32 0 C32 32.01 32 64.02 32 97 C21.44 97 10.88 97 0 97 C0 64.99 0 32.98 0 0 Z " fill="#000000" transform="translate(772,1061)"/>
<path d="M0 0 C10.56 0 21.12 0 32 0 C32 32.01 32 64.02 32 97 C21.44 97 10.88 97 0 97 C0 64.99 0 32.98 0 0 Z " fill="#000000" transform="translate(1029,836)"/>
<path d="M0 0 C32.01 0 64.02 0 97 0 C97 10.56 97 21.12 97 32 C64.99 32 32.98 32 0 32 C0 21.44 0 10.88 0 0 Z " fill="#000000" transform="translate(1222,804)"/>
<path d="M0 0 C10.56 0 21.12 0 32 0 C32 32.01 32 64.02 32 97 C21.44 97 10.88 97 0 97 C0 64.99 0 32.98 0 0 Z " fill="#000000" transform="translate(1158,675)"/>
<path d="M0 0 C10.56 0 21.12 0 32 0 C32 32.01 32 64.02 32 97 C21.44 97 10.88 97 0 97 C0 64.99 0 32.98 0 0 Z " fill="#000000" transform="translate(965,611)"/>
<path d="M0 0 C10.56 0 21.12 0 32 0 C32 32.01 32 64.02 32 97 C21.44 97 10.88 97 0 97 C0 64.99 0 32.98 0 0 Z " fill="#000000" transform="translate(708,611)"/>
<path d="M0 0 C10.56 0 21.12 0 32 0 C32 10.56 32 21.12 32 32 C42.89 32 53.78 32 65 32 C65 42.56 65 53.12 65 64 C43.55 64 22.1 64 0 64 C0 42.88 0 21.76 0 0 Z " fill="#FF7E00" transform="translate(1447,386)"/>
<path d="M0 0 C10.56 0 21.12 0 32 0 C32 32.01 32 64.02 32 97 C21.44 97 10.88 97 0 97 C0 64.99 0 32.98 0 0 Z " fill="#000000" transform="translate(322,418)"/>
<path d="M0 0 C10.56 0 21.12 0 32 0 C32 31.68 32 63.36 32 96 C21.44 96 10.88 96 0 96 C0 64.32 0 32.64 0 0 Z " fill="#000000" transform="translate(322,1126)"/>
<path d="M0 0 C10.56 0 21.12 0 32 0 C32 31.68 32 63.36 32 96 C21.44 96 10.88 96 0 96 C0 64.32 0 32.64 0 0 Z " fill="#000000" transform="translate(193,997)"/>
<path d="M0 0 C10.56 0 21.12 0 32 0 C32 31.68 32 63.36 32 96 C21.44 96 10.88 96 0 96 C0 64.32 0 32.64 0 0 Z " fill="#000000" transform="translate(740,965)"/>
<path d="M0 0 C10.56 0 21.12 0 32 0 C32 31.68 32 63.36 32 96 C21.44 96 10.88 96 0 96 C0 64.32 0 32.64 0 0 Z " fill="#000000" transform="translate(193,547)"/>
<path d="M0 0 C21.12 0 42.24 0 64 0 C64 21.12 64 42.24 64 64 C53.44 64 42.88 64 32 64 C32 53.44 32 42.88 32 32 C21.44 32 10.88 32 0 32 C0 21.44 0 10.88 0 0 Z " fill="#FF7E00" transform="translate(1383,386)"/>
<path d="M0 0 C31.68 0 63.36 0 96 0 C96 10.56 96 21.12 96 32 C64.32 32 32.64 32 0 32 C0 21.44 0 10.88 0 0 Z " fill="#000000" transform="translate(772,257)"/>
<path d="M0 0 C10.89 0 21.78 0 33 0 C33 21.45 33 42.9 33 65 C22.11 65 11.22 65 0 65 C0 43.55 0 22.1 0 0 Z " fill="#000000" transform="translate(900,482)"/>
<path d="M0 0 C10.89 0 21.78 0 33 0 C33 21.45 33 42.9 33 65 C22.11 65 11.22 65 0 65 C0 43.55 0 22.1 0 0 Z " fill="#FFB169" transform="translate(289,482)"/>
<path d="M0 0 C10.89 0 21.78 0 33 0 C33 21.45 33 42.9 33 65 C22.11 65 11.22 65 0 65 C0 43.55 0 22.1 0 0 Z " fill="#FF7E00" transform="translate(1479,450)"/>
<path d="M0 0 C10.89 0 21.78 0 33 0 C33 21.12 33 42.24 33 64 C22.11 64 11.22 64 0 64 C0 42.88 0 21.76 0 0 Z " fill="#000000" transform="translate(289,1222)"/>
<path d="M0 0 C10.89 0 21.78 0 33 0 C33 21.12 33 42.24 33 64 C22.11 64 11.22 64 0 64 C0 42.88 0 21.76 0 0 Z " fill="#FFB169" transform="translate(675,1126)"/>
<path d="M0 0 C10.89 0 21.78 0 33 0 C33 21.12 33 42.24 33 64 C22.11 64 11.22 64 0 64 C0 42.88 0 21.76 0 0 Z " fill="#000000" transform="translate(289,354)"/>
<path d="M0 0 C10.89 0 21.78 0 33 0 C33 21.12 33 42.24 33 64 C22.11 64 11.22 64 0 64 C0 42.88 0 21.76 0 0 Z " fill="#000000" transform="translate(900,322)"/>
<path d="M0 0 C21.12 0 42.24 0 64 0 C64 10.89 64 21.78 64 33 C42.88 33 21.76 33 0 33 C0 22.11 0 11.22 0 0 Z " fill="#000000" transform="translate(708,289)"/>
<path d="M0 0 C10.56 0 21.12 0 32 0 C32 21.45 32 42.9 32 65 C21.44 65 10.88 65 0 65 C0 43.55 0 22.1 0 0 Z " fill="#000000" transform="translate(1029,1093)"/>
<path d="M0 0 C10.56 0 21.12 0 32 0 C32 21.45 32 42.9 32 65 C21.44 65 10.88 65 0 65 C0 43.55 0 22.1 0 0 Z " fill="#000000" transform="translate(161,1093)"/>
<path d="M0 0 C21.45 0 42.9 0 65 0 C65 10.56 65 21.12 65 32 C43.55 32 22.1 32 0 32 C0 21.44 0 10.88 0 0 Z " fill="#000000" transform="translate(1254,965)"/>
<path d="M0 0 C10.56 0 21.12 0 32 0 C32 21.45 32 42.9 32 65 C21.44 65 10.88 65 0 65 C0 43.55 0 22.1 0 0 Z " fill="#FFB169" transform="translate(997,482)"/>
<path d="M0 0 C10.56 0 21.12 0 32 0 C32 21.45 32 42.9 32 65 C21.44 65 10.88 65 0 65 C0 43.55 0 22.1 0 0 Z " fill="#FFB169" transform="translate(643,482)"/>
<path d="M0 0 C10.56 0 21.12 0 32 0 C32 21.45 32 42.9 32 65 C21.44 65 10.88 65 0 65 C0 43.55 0 22.1 0 0 Z " fill="#000000" transform="translate(161,482)"/>
<path d="M0 0 C10.56 0 21.12 0 32 0 C32 21.45 32 42.9 32 65 C21.44 65 10.88 65 0 65 C0 43.55 0 22.1 0 0 Z " fill="#000000" transform="translate(1512,450)"/>
<path d="M0 0 C10.56 0 21.12 0 32 0 C32 21.45 32 42.9 32 65 C21.44 65 10.88 65 0 65 C0 43.55 0 22.1 0 0 Z " fill="#000000" transform="translate(1319,450)"/>
<path d="M0 0 C10.56 0 21.12 0 32 0 C32 21.45 32 42.9 32 65 C21.44 65 10.88 65 0 65 C0 43.55 0 22.1 0 0 Z " fill="#000000" transform="translate(1158,450)"/>
<path d="M0 0 C10.56 0 21.12 0 32 0 C32 21.45 32 42.9 32 65 C21.44 65 10.88 65 0 65 C0 43.55 0 22.1 0 0 Z " fill="#000000" transform="translate(579,450)"/>
<path d="M0 0 C21.12 0 42.24 0 64 0 C64 10.56 64 21.12 64 32 C42.88 32 21.76 32 0 32 C0 21.44 0 10.88 0 0 Z " fill="#000000" transform="translate(708,1319)"/>
<path d="M0 0 C21.12 0 42.24 0 64 0 C64 10.56 64 21.12 64 32 C42.88 32 21.76 32 0 32 C0 21.44 0 10.88 0 0 Z " fill="#FFB169" transform="translate(1190,1190)"/>
<path d="M0 0 C10.56 0 21.12 0 32 0 C32 21.12 32 42.24 32 64 C21.44 64 10.88 64 0 64 C0 42.88 0 21.76 0 0 Z " fill="#000000" transform="translate(611,1190)"/>
<path d="M0 0 C10.56 0 21.12 0 32 0 C32 21.12 32 42.24 32 64 C21.44 64 10.88 64 0 64 C0 42.88 0 21.76 0 0 Z " fill="#000000" transform="translate(1254,1158)"/>
<path d="M0 0 C10.56 0 21.12 0 32 0 C32 21.12 32 42.24 32 64 C21.44 64 10.88 64 0 64 C0 42.88 0 21.76 0 0 Z " fill="#000000" transform="translate(997,1158)"/>
<path d="M0 0 C10.56 0 21.12 0 32 0 C32 21.12 32 42.24 32 64 C21.44 64 10.88 64 0 64 C0 42.88 0 21.76 0 0 Z " fill="#000000" transform="translate(804,1158)"/>
<path d="M0 0 C10.56 0 21.12 0 32 0 C32 21.12 32 42.24 32 64 C21.44 64 10.88 64 0 64 C0 42.88 0 21.76 0 0 Z " fill="#000000" transform="translate(579,1126)"/>
<path d="M0 0 C21.12 0 42.24 0 64 0 C64 10.56 64 21.12 64 32 C42.88 32 21.76 32 0 32 C0 21.44 0 10.88 0 0 Z " fill="#000000" transform="translate(1319,933)"/>
<path d="M0 0 C10.56 0 21.12 0 32 0 C32 21.12 32 42.24 32 64 C21.44 64 10.88 64 0 64 C0 42.88 0 21.76 0 0 Z " fill="#FFB169" transform="translate(1415,772)"/>
<path d="M0 0 C10.56 0 21.12 0 32 0 C32 21.12 32 42.24 32 64 C21.44 64 10.88 64 0 64 C0 42.88 0 21.76 0 0 Z " fill="#000000" transform="translate(1512,740)"/>
<path d="M0 0 C10.56 0 21.12 0 32 0 C32 21.12 32 42.24 32 64 C21.44 64 10.88 64 0 64 C0 42.88 0 21.76 0 0 Z " fill="#000000" transform="translate(933,547)"/>
<path d="M0 0 C10.56 0 21.12 0 32 0 C32 21.12 32 42.24 32 64 C21.44 64 10.88 64 0 64 C0 42.88 0 21.76 0 0 Z " fill="#FFB169" transform="translate(611,547)"/>
<path d="M0 0 C10.56 0 21.12 0 32 0 C32 21.12 32 42.24 32 64 C21.44 64 10.88 64 0 64 C0 42.88 0 21.76 0 0 Z " fill="#000000" transform="translate(1351,515)"/>
<path d="M0 0 C21.12 0 42.24 0 64 0 C64 10.56 64 21.12 64 32 C42.88 32 21.76 32 0 32 C0 21.44 0 10.88 0 0 Z " fill="#000000" transform="translate(804,418)"/>
<path d="M0 0 C10.56 0 21.12 0 32 0 C32 21.12 32 42.24 32 64 C21.44 64 10.88 64 0 64 C0 42.88 0 21.76 0 0 Z " fill="#FFB169" transform="translate(257,418)"/>
<path d="M0 0 C10.56 0 21.12 0 32 0 C32 21.12 32 42.24 32 64 C21.44 64 10.88 64 0 64 C0 42.88 0 21.76 0 0 Z " fill="#000000" transform="translate(965,386)"/>
<path d="M0 0 C10.56 0 21.12 0 32 0 C32 21.12 32 42.24 32 64 C21.44 64 10.88 64 0 64 C0 42.88 0 21.76 0 0 Z " fill="#000000" transform="translate(611,386)"/>
<path d="M0 0 C10.56 0 21.12 0 32 0 C32 21.12 32 42.24 32 64 C21.44 64 10.88 64 0 64 C0 42.88 0 21.76 0 0 Z " fill="#000000" transform="translate(129,386)"/>
<path d="M0 0 C21.12 0 42.24 0 64 0 C64 10.56 64 21.12 64 32 C42.88 32 21.76 32 0 32 C0 21.44 0 10.88 0 0 Z " fill="#FFB169" transform="translate(1319,354)"/>
<path d="M0 0 C10.56 0 21.12 0 32 0 C32 21.12 32 42.24 32 64 C21.44 64 10.88 64 0 64 C0 42.88 0 21.76 0 0 Z " fill="#FFB169" transform="translate(225,354)"/>
<path d="M0 0 C21.12 0 42.24 0 64 0 C64 10.56 64 21.12 64 32 C42.88 32 21.76 32 0 32 C0 21.44 0 10.88 0 0 Z " fill="#000000" transform="translate(1029,322)"/>
<path d="M0 0 C10.89 0 21.78 0 33 0 C33 10.89 33 21.78 33 33 C22.11 33 11.22 33 0 33 C0 22.11 0 11.22 0 0 Z " fill="#000000" transform="translate(900,1286)"/>
<path d="M0 0 C10.89 0 21.78 0 33 0 C33 10.89 33 21.78 33 33 C22.11 33 11.22 33 0 33 C0 22.11 0 11.22 0 0 Z " fill="#000000" transform="translate(675,1286)"/>
<path d="M0 0 C10.89 0 21.78 0 33 0 C33 10.89 33 21.78 33 33 C22.11 33 11.22 33 0 33 C0 22.11 0 11.22 0 0 Z " fill="#FFB169" transform="translate(289,1093)"/>
<path d="M0 0 C10.89 0 21.78 0 33 0 C33 10.89 33 21.78 33 33 C22.11 33 11.22 33 0 33 C0 22.11 0 11.22 0 0 Z " fill="#000000" transform="translate(1093,289)"/>
<path d="M0 0 C10.56 0 21.12 0 32 0 C32 10.89 32 21.78 32 33 C21.44 33 10.88 33 0 33 C0 22.11 0 11.22 0 0 Z " fill="#000000" transform="translate(1351,1286)"/>
<path d="M0 0 C10.56 0 21.12 0 32 0 C32 10.89 32 21.78 32 33 C21.44 33 10.88 33 0 33 C0 22.11 0 11.22 0 0 Z " fill="#000000" transform="translate(836,1286)"/>
<path d="M0 0 C10.56 0 21.12 0 32 0 C32 10.89 32 21.78 32 33 C21.44 33 10.88 33 0 33 C0 22.11 0 11.22 0 0 Z " fill="#000000" transform="translate(257,1286)"/>
<path d="M0 0 C10.56 0 21.12 0 32 0 C32 10.89 32 21.78 32 33 C21.44 33 10.88 33 0 33 C0 22.11 0 11.22 0 0 Z " fill="#000000" transform="translate(129,1286)"/>
<path d="M0 0 C10.89 0 21.78 0 33 0 C33 10.56 33 21.12 33 32 C22.11 32 11.22 32 0 32 C0 21.44 0 10.88 0 0 Z " fill="#000000" transform="translate(1286,1222)"/>
<path d="M0 0 C10.89 0 21.78 0 33 0 C33 10.56 33 21.12 33 32 C22.11 32 11.22 32 0 32 C0 21.44 0 10.88 0 0 Z " fill="#FFB169" transform="translate(289,1029)"/>
<path d="M0 0 C10.89 0 21.78 0 33 0 C33 10.56 33 21.12 33 32 C22.11 32 11.22 32 0 32 C0 21.44 0 10.88 0 0 Z " fill="#FFB169" transform="translate(289,965)"/>
<path d="M0 0 C10.56 0 21.12 0 32 0 C32 10.89 32 21.78 32 33 C21.44 33 10.88 33 0 33 C0 22.11 0 11.22 0 0 Z " fill="#000000" transform="translate(1383,900)"/>
<path d="M0 0 C10.89 0 21.78 0 33 0 C33 10.56 33 21.12 33 32 C22.11 32 11.22 32 0 32 C0 21.44 0 10.88 0 0 Z " fill="#000000" transform="translate(1479,804)"/>
<path d="M0 0 C10.89 0 21.78 0 33 0 C33 10.56 33 21.12 33 32 C22.11 32 11.22 32 0 32 C0 21.44 0 10.88 0 0 Z " fill="#000000" transform="translate(1479,418)"/>
<path d="M0 0 C10.89 0 21.78 0 33 0 C33 10.56 33 21.12 33 32 C22.11 32 11.22 32 0 32 C0 21.44 0 10.88 0 0 Z " fill="#FFB169" transform="translate(675,418)"/>
<path d="M0 0 C10.89 0 21.78 0 33 0 C33 10.56 33 21.12 33 32 C22.11 32 11.22 32 0 32 C0 21.44 0 10.88 0 0 Z " fill="#FFB169" transform="translate(1093,354)"/>
<path d="M0 0 C10.89 0 21.78 0 33 0 C33 10.56 33 21.12 33 32 C22.11 32 11.22 32 0 32 C0 21.44 0 10.88 0 0 Z " fill="#000000" transform="translate(675,322)"/>
<path d="M0 0 C10.56 0 21.12 0 32 0 C32 10.89 32 21.78 32 33 C21.44 33 10.88 33 0 33 C0 22.11 0 11.22 0 0 Z " fill="#000000" transform="translate(1351,289)"/>
<path d="M0 0 C10.56 0 21.12 0 32 0 C32 10.89 32 21.78 32 33 C21.44 33 10.88 33 0 33 C0 22.11 0 11.22 0 0 Z " fill="#000000" transform="translate(868,289)"/>
<path d="M0 0 C10.56 0 21.12 0 32 0 C32 10.89 32 21.78 32 33 C21.44 33 10.88 33 0 33 C0 22.11 0 11.22 0 0 Z " fill="#000000" transform="translate(225,289)"/>
<path d="M0 0 C10.56 0 21.12 0 32 0 C32 10.56 32 21.12 32 32 C21.44 32 10.88 32 0 32 C0 21.44 0 10.88 0 0 Z " fill="#000000" transform="translate(772,1351)"/>
<path d="M0 0 C10.56 0 21.12 0 32 0 C32 10.56 32 21.12 32 32 C21.44 32 10.88 32 0 32 C0 21.44 0 10.88 0 0 Z " fill="#000000" transform="translate(193,1351)"/>
<path d="M0 0 C10.56 0 21.12 0 32 0 C32 10.56 32 21.12 32 32 C21.44 32 10.88 32 0 32 C0 21.44 0 10.88 0 0 Z " fill="#000000" transform="translate(804,1319)"/>
<path d="M0 0 C10.56 0 21.12 0 32 0 C32 10.56 32 21.12 32 32 C21.44 32 10.88 32 0 32 C0 21.44 0 10.88 0 0 Z " fill="#000000" transform="translate(225,1319)"/>
<path d="M0 0 C10.56 0 21.12 0 32 0 C32 10.56 32 21.12 32 32 C21.44 32 10.88 32 0 32 C0 21.44 0 10.88 0 0 Z " fill="#000000" transform="translate(161,1319)"/>
<path d="M0 0 C10.56 0 21.12 0 32 0 C32 10.56 32 21.12 32 32 C21.44 32 10.88 32 0 32 C0 21.44 0 10.88 0 0 Z " fill="#000000" transform="translate(1319,1254)"/>
<path d="M0 0 C10.56 0 21.12 0 32 0 C32 10.56 32 21.12 32 32 C21.44 32 10.88 32 0 32 C0 21.44 0 10.88 0 0 Z " fill="#000000" transform="translate(933,1254)"/>
<path d="M0 0 C10.56 0 21.12 0 32 0 C32 10.56 32 21.12 32 32 C21.44 32 10.88 32 0 32 C0 21.44 0 10.88 0 0 Z " fill="#000000" transform="translate(868,1254)"/>
<path d="M0 0 C10.56 0 21.12 0 32 0 C32 10.56 32 21.12 32 32 C21.44 32 10.88 32 0 32 C0 21.44 0 10.88 0 0 Z " fill="#000000" transform="translate(643,1254)"/>
<path d="M0 0 C10.56 0 21.12 0 32 0 C32 10.56 32 21.12 32 32 C21.44 32 10.88 32 0 32 C0 21.44 0 10.88 0 0 Z " fill="#FFB169" transform="translate(1254,1222)"/>
<path d="M0 0 C10.56 0 21.12 0 32 0 C32 10.56 32 21.12 32 32 C21.44 32 10.88 32 0 32 C0 21.44 0 10.88 0 0 Z " fill="#000000" transform="translate(965,1222)"/>
<path d="M0 0 C10.56 0 21.12 0 32 0 C32 10.56 32 21.12 32 32 C21.44 32 10.88 32 0 32 C0 21.44 0 10.88 0 0 Z " fill="#000000" transform="translate(836,1222)"/>
<path d="M0 0 C10.56 0 21.12 0 32 0 C32 10.56 32 21.12 32 32 C21.44 32 10.88 32 0 32 C0 21.44 0 10.88 0 0 Z " fill="#FFB169" transform="translate(708,1190)"/>
<path d="M0 0 C10.56 0 21.12 0 32 0 C32 10.56 32 21.12 32 32 C21.44 32 10.88 32 0 32 C0 21.44 0 10.88 0 0 Z " fill="#FFB169" transform="translate(1158,1158)"/>
<path d="M0 0 C10.56 0 21.12 0 32 0 C32 10.56 32 21.12 32 32 C21.44 32 10.88 32 0 32 C0 21.44 0 10.88 0 0 Z " fill="#FFB169" transform="translate(257,1158)"/>
<path d="M0 0 C10.56 0 21.12 0 32 0 C32 10.56 32 21.12 32 32 C21.44 32 10.88 32 0 32 C0 21.44 0 10.88 0 0 Z " fill="#000000" transform="translate(129,1158)"/>
<path d="M0 0 C10.56 0 21.12 0 32 0 C32 10.56 32 21.12 32 32 C21.44 32 10.88 32 0 32 C0 21.44 0 10.88 0 0 Z " fill="#000000" transform="translate(1415,868)"/>
<path d="M0 0 C10.56 0 21.12 0 32 0 C32 10.56 32 21.12 32 32 C21.44 32 10.88 32 0 32 C0 21.44 0 10.88 0 0 Z " fill="#FFB169" transform="translate(1126,868)"/>
<path d="M0 0 C10.56 0 21.12 0 32 0 C32 10.56 32 21.12 32 32 C21.44 32 10.88 32 0 32 C0 21.44 0 10.88 0 0 Z " fill="#000000" transform="translate(1447,836)"/>
<path d="M0 0 C10.56 0 21.12 0 32 0 C32 10.56 32 21.12 32 32 C21.44 32 10.88 32 0 32 C0 21.44 0 10.88 0 0 Z " fill="#FFB169" transform="translate(1061,804)"/>
<path d="M0 0 C10.56 0 21.12 0 32 0 C32 10.56 32 21.12 32 32 C21.44 32 10.88 32 0 32 C0 21.44 0 10.88 0 0 Z " fill="#000000" transform="translate(1319,772)"/>
<path d="M0 0 C10.56 0 21.12 0 32 0 C32 10.56 32 21.12 32 32 C21.44 32 10.88 32 0 32 C0 21.44 0 10.88 0 0 Z " fill="#000000" transform="translate(1190,772)"/>
<path d="M0 0 C10.56 0 21.12 0 32 0 C32 10.56 32 21.12 32 32 C21.44 32 10.88 32 0 32 C0 21.44 0 10.88 0 0 Z " fill="#000000" transform="translate(1351,740)"/>
<path d="M0 0 C10.56 0 21.12 0 32 0 C32 10.56 32 21.12 32 32 C21.44 32 10.88 32 0 32 C0 21.44 0 10.88 0 0 Z " fill="#000000" transform="translate(933,450)"/>
<path d="M0 0 C10.56 0 21.12 0 32 0 C32 10.56 32 21.12 32 32 C21.44 32 10.88 32 0 32 C0 21.44 0 10.88 0 0 Z " fill="#000000" transform="translate(772,450)"/>
<path d="M0 0 C10.56 0 21.12 0 32 0 C32 10.56 32 21.12 32 32 C21.44 32 10.88 32 0 32 C0 21.44 0 10.88 0 0 Z " fill="#FFB169" transform="translate(1415,418)"/>
<path d="M0 0 C10.56 0 21.12 0 32 0 C32 10.56 32 21.12 32 32 C21.44 32 10.88 32 0 32 C0 21.44 0 10.88 0 0 Z " fill="#FFB169" transform="translate(1029,418)"/>
<path d="M0 0 C10.56 0 21.12 0 32 0 C32 10.56 32 21.12 32 32 C21.44 32 10.88 32 0 32 C0 21.44 0 10.88 0 0 Z " fill="#000000" transform="translate(1447,386)"/>
<path d="M0 0 C10.56 0 21.12 0 32 0 C32 10.56 32 21.12 32 32 C21.44 32 10.88 32 0 32 C0 21.44 0 10.88 0 0 Z " fill="#FFB169" transform="translate(1383,386)"/>
<path d="M0 0 C10.56 0 21.12 0 32 0 C32 10.56 32 21.12 32 32 C21.44 32 10.88 32 0 32 C0 21.44 0 10.88 0 0 Z " fill="#FFB169" transform="translate(1061,386)"/>
<path d="M0 0 C10.56 0 21.12 0 32 0 C32 10.56 32 21.12 32 32 C21.44 32 10.88 32 0 32 C0 21.44 0 10.88 0 0 Z " fill="#000000" transform="translate(868,386)"/>
<path d="M0 0 C10.56 0 21.12 0 32 0 C32 10.56 32 21.12 32 32 C21.44 32 10.88 32 0 32 C0 21.44 0 10.88 0 0 Z " fill="#FFB169" transform="translate(708,386)"/>
<path d="M0 0 C10.56 0 21.12 0 32 0 C32 10.56 32 21.12 32 32 C21.44 32 10.88 32 0 32 C0 21.44 0 10.88 0 0 Z " fill="#000000" transform="translate(1415,354)"/>
<path d="M0 0 C10.56 0 21.12 0 32 0 C32 10.56 32 21.12 32 32 C21.44 32 10.88 32 0 32 C0 21.44 0 10.88 0 0 Z " fill="#000000" transform="translate(997,354)"/>
<path d="M0 0 C10.56 0 21.12 0 32 0 C32 10.56 32 21.12 32 32 C21.44 32 10.88 32 0 32 C0 21.44 0 10.88 0 0 Z " fill="#000000" transform="translate(643,354)"/>
<path d="M0 0 C10.56 0 21.12 0 32 0 C32 10.56 32 21.12 32 32 C21.44 32 10.88 32 0 32 C0 21.44 0 10.88 0 0 Z " fill="#000000" transform="translate(1383,322)"/>
<path d="M0 0 C10.56 0 21.12 0 32 0 C32 10.56 32 21.12 32 32 C21.44 32 10.88 32 0 32 C0 21.44 0 10.88 0 0 Z " fill="#000000" transform="translate(257,322)"/>
</svg>
